<?xml version="1.0" standalone="no"?>
<!DOCTYPE svg PUBLIC "-//W3C//DTD SVG 20010904//EN"
 "http://www.w3.org/TR/2001/REC-SVG-20010904/DTD/svg10.dtd">
<svg version="1.0" xmlns="http://www.w3.org/2000/svg"
 width="928.000000pt" height="928.000000pt" viewBox="0 0 928.000000 928.000000"
 preserveAspectRatio="xMidYMid meet">
<metadata>
Created by potrace 1.14, written by Peter Selinger 2001-2017
</metadata>
<g transform="translate(0.000000,928.000000) scale(0.100000,-0.100000)"
fill="#000000" stroke="none">
<path d="M0 5276 c0 -3805 1 -4005 18 -4009 16 -4 16 -5 0 -6 -17 -1 -18 -40
-18 -631 l0 -630 2772 0 c1525 0 2768 4 2762 8 -13 8 -28 62 -17 62 18 -1 44
-29 38 -40 -4 -7 -1 -16 6 -21 8 -5 720 -9 1614 -9 1409 1 1598 2 1581 15 -11
8 -14 15 -8 15 8 0 10 9 6 25 -5 22 -3 24 12 18 24 -9 34 -23 34 -50 l0 -23
240 0 240 0 0 4640 0 4640 -459 0 c-391 0 -460 -2 -463 -14 -2 -8 -145 -166
-318 -352 -173 -185 -343 -366 -377 -403 l-61 -66 2 72 c2 45 -1 70 -7 66 -6
-4 -7 -1 -2 7 5 8 10 54 12 104 2 50 3 98 4 106 0 8 7 29 15 46 7 17 16 49 20
70 3 22 9 44 14 49 4 6 11 28 15 50 8 46 31 95 45 95 6 0 9 3 8 8 -4 13 15 57
37 87 12 17 28 40 34 52 l12 23 -671 0 c-434 0 -670 -4 -671 -10 -5 -36 -3
-67 4 -63 11 7 8 -12 -4 -24 -5 -5 -10 -34 -11 -64 l0 -54 -54 107 -54 108
-2240 0 c-1491 0 -2240 -3 -2240 -10 0 -5 -7 -10 -15 -10 -8 0 -15 5 -15 10 0
7 -313 10 -920 10 l-920 0 0 -4004z m1805 3893 c11 -17 -1 -21 -15 -4 -8 9 -8
15 -2 15 6 0 14 -5 17 -11z m55 -39 c0 -16 -4 -30 -9 -30 -10 0 -21 47 -13 55
13 13 22 3 22 -25z m-110 -30 c0 -9 -31 -30 -44 -30 -8 0 27 38 37 39 4 1 7
-3 7 -9z m140 -15 c0 -8 -7 -15 -15 -15 -16 0 -20 12 -8 23 11 12 23 8 23 -8z
m20 -24 c0 -12 -20 -25 -27 -18 -7 7 6 27 18 27 5 0 9 -4 9 -9z m930 -26 c-7
-9 -15 -13 -17 -11 -7 7 7 26 19 26 6 0 6 -6 -2 -15z m-1760 -114 c0 -6 -4
-13 -10 -16 -5 -3 -10 1 -10 9 0 9 5 16 10 16 6 0 10 -4 10 -9z m645 -11 c-3
-6 4 -14 16 -19 l23 -8 -22 -12 c-18 -10 -22 -9 -22 4 0 8 -4 15 -10 15 -5 0
-10 7 -10 15 0 8 7 15 16 15 8 0 12 -5 9 -10z m-609 -27 c-10 -10 -19 5 -10
18 6 11 8 11 12 0 2 -7 1 -15 -2 -18z m-216 -62 l0 -26 -15 29 c-19 35 -19 37
0 30 8 -4 15 -18 15 -33z m1715 -1 c3 -5 1 -10 -4 -10 -6 0 -11 5 -11 10 0 6
2 10 4 10 3 0 8 -4 11 -10z m490 0 c-3 -5 -14 -10 -23 -10 -15 0 -15 2 -2 10
20 13 33 13 25 0z m-2335 -82 c0 -6 -7 -5 -15 2 -8 7 -15 17 -15 22 0 6 7 5
15 -2 8 -7 15 -17 15 -22z m2650 -8 c0 -5 -5 -10 -11 -10 -5 0 -7 5 -4 10 3 6
8 10 11 10 2 0 4 -4 4 -10z m-2025 -180 c3 -5 -1 -10 -9 -10 -9 0 -16 5 -16
10 0 6 4 10 9 10 6 0 13 -4 16 -10z m-165 -48 c0 -13 -12 -22 -22 -16 -10 6
-1 24 13 24 5 0 9 -4 9 -8z m1743 -83 c4 -15 2 -18 -7 -10 -9 8 -16 1 -26 -27
l-13 -37 -8 30 c-6 21 -4 34 8 47 21 24 39 23 46 -3z m-1672 -69 c10 0 19 -5
19 -11 0 -15 -63 -6 -68 10 -3 10 0 12 12 8 10 -4 26 -7 37 -7z m1389 -20 c0
-5 -7 -10 -15 -10 -8 0 -15 5 -15 10 0 6 7 10 15 10 8 0 15 -4 15 -10z m225 0
c3 -5 1 -10 -4 -10 -6 0 -11 5 -11 10 0 6 2 10 4 10 3 0 8 -4 11 -10z m-361
-105 c11 -8 15 -15 10 -15 -6 0 -19 7 -30 15 -10 8 -14 14 -9 14 6 0 19 -6 29
-14z m-534 -9 c0 -9 -30 -14 -35 -6 -4 6 3 10 14 10 12 0 21 -2 21 -4z m680
-20 c0 -3 -4 -8 -10 -11 -5 -3 -10 -1 -10 4 0 6 5 11 10 11 6 0 10 -2 10 -4z
m325 -66 c-3 -5 -11 -10 -16 -10 -6 0 -7 5 -4 10 3 6 11 10 16 10 6 0 7 -4 4
-10z m45 6 c0 -2 -7 -6 -15 -10 -8 -3 -15 -1 -15 4 0 6 7 10 15 10 8 0 15 -2
15 -4z m24 -21 c3 -8 1 -15 -4 -15 -6 0 -10 7 -10 15 0 8 2 15 4 15 2 0 6 -7
10 -15z m4096 -85 c0 -4 -20 -26 -45 -49 l-45 -41 -7 -369 -6 -368 -49 -16
c-48 -15 -48 -15 -54 9 -3 13 -10 24 -15 24 -6 0 -19 21 -29 46 -11 25 -35 60
-53 77 -17 17 -24 28 -14 24 24 -9 21 6 -8 33 -14 13 -25 32 -25 42 0 10 -7
21 -16 25 -8 3 -13 12 -10 19 3 7 -7 27 -21 45 -20 24 -23 33 -13 39 10 6 12
44 8 180 -6 168 -5 172 16 180 11 4 25 5 29 3 5 -3 16 2 25 10 9 9 29 19 45
22 15 4 27 11 27 16 0 5 18 9 40 9 22 0 40 5 40 11 0 5 4 8 9 4 5 -3 13 -1 16
5 5 8 11 7 21 -1 11 -9 14 -9 14 1 0 7 7 10 15 7 8 -4 17 -2 20 3 4 6 15 10
26 10 10 0 19 4 19 9 0 5 9 7 20 4 11 -3 20 -9 20 -13z m-4306 -77 c-16 -26
-26 -19 -30 19 l-3 37 21 -21 c14 -14 18 -25 12 -35z m50 42 c3 -9 0 -15 -9
-15 -8 0 -15 7 -15 15 0 8 4 15 9 15 5 0 11 -7 15 -15z m5666 -50 c0 -8 -7
-15 -15 -15 -9 0 -12 6 -9 15 4 8 10 15 15 15 5 0 9 -7 9 -15z m90 5 c0 -5 -4
-10 -10 -10 -5 0 -10 5 -10 10 0 6 5 10 10 10 6 0 10 -4 10 -10z m-6444 -27
c-7 -7 -26 7 -26 19 0 6 6 6 15 -2 9 -7 13 -15 11 -17z m-256 7 c0 -5 -5 -10
-11 -10 -5 0 -7 5 -4 10 3 6 8 10 11 10 2 0 4 -4 4 -10z m6105 -110 c3 -5 1
-10 -4 -10 -6 0 -11 5 -11 10 0 6 2 10 4 10 3 0 8 -4 11 -10z m-657 -72 c12
-27 27 -48 32 -48 6 0 10 -5 10 -12 0 -18 -37 21 -51 54 -7 17 -26 36 -43 44
l-31 14 30 -2 c25 -3 34 -11 53 -50z m-5358 7 c0 -8 -4 -15 -10 -15 -5 0 -10
7 -10 15 0 8 5 15 10 15 6 0 10 -7 10 -15z m-99 -16 c-13 -11 -26 -17 -29 -14
-7 6 29 34 43 34 6 0 -1 -9 -14 -20z m579 -44 c7 -9 11 -17 8 -20 -2 -2 -12 4
-21 15 -9 11 -13 20 -8 20 5 0 14 -7 21 -15z m-800 1 c0 -3 -4 -8 -10 -11 -5
-3 -10 -1 -10 4 0 6 5 11 10 11 6 0 10 -2 10 -4z m-1472 -92 c-10 -10 -28 6
-28 24 0 15 1 15 17 -1 9 -9 14 -19 11 -23z m71 -70 c13 -19 40 -42 60 -51 24
-10 31 -17 20 -20 -31 -8 -67 16 -97 66 -35 56 -21 61 17 5z m1011 36 c10 0
11 -3 3 -11 -12 -12 -63 -2 -63 13 0 6 10 8 23 4 12 -3 29 -6 37 -6z m-873
-102 c-3 -8 -6 -5 -6 6 -1 11 2 17 5 13 3 -3 4 -12 1 -19z m603 2 c0 -5 -2
-10 -4 -10 -3 0 -8 5 -11 10 -3 6 -1 10 4 10 6 0 11 -4 11 -10z m5261 -113
c-6 -8 -12 -34 -13 -59 -2 -26 -5 -45 -7 -43 -8 9 -28 -21 -24 -36 3 -9 -1
-27 -7 -39 -10 -18 -9 -24 1 -31 11 -7 11 -9 1 -9 -9 0 -11 -7 -7 -19 4 -13
-3 -28 -19 -46 -14 -15 -22 -33 -19 -41 8 -22 -36 -87 -120 -176 -11 -11 -17
-28 -14 -39 3 -10 1 -19 -4 -19 -5 0 -9 -8 -9 -18 0 -10 -3 -22 -7 -26 -5 -4
-14 -22 -21 -39 -27 -70 -1 69 54 283 89 346 78 317 137 345 60 27 96 33 78
12z m-2531 -41 c-19 -13 -36 -20 -38 -15 -7 18 -22 8 -19 -13 2 -20 -3 -23
-31 -23 -18 0 -37 -7 -42 -15 -5 -8 -13 -11 -17 -6 -4 5 -2 11 5 13 6 3 12 11
12 18 0 20 52 49 85 47 17 -1 37 3 45 8 33 21 32 9 0 -14z m68 -9 c2 -15 -2
-27 -8 -27 -6 0 -8 4 -5 10 3 5 1 19 -6 31 -9 17 -8 20 3 17 7 -3 14 -17 16
-31z m342 1 c0 -5 -7 -8 -15 -8 -17 0 -18 2 -9 25 5 13 8 14 15 3 5 -7 9 -16
9 -20z m3460 28 c0 -3 -4 -8 -10 -11 -5 -3 -10 -1 -10 4 0 6 5 11 10 11 6 0
10 -2 10 -4z m-2550 -26 c12 -23 5 -26 -16 -6 -16 17 -18 26 -4 26 5 0 14 -9
20 -20z m-800 0 c0 -5 -4 -10 -10 -10 -5 0 -10 5 -10 10 0 6 5 10 10 10 6 0
10 -4 10 -10z m227 -23 c3 -4 2 -12 -4 -18 -11 -11 -63 4 -63 20 0 10 56 9 67
-2z m-537 -54 c0 -18 -7 -17 -47 14 -29 22 -38 25 -54 15 -23 -15 -32 -15 -24
-1 4 6 16 14 28 18 25 9 97 -25 97 -46z m4687 -1 c6 -10 11 -51 12 -90 0 -39
1 -74 2 -79 1 -4 0 -15 -4 -23 -6 -17 -20 -70 -22 -85 -1 -5 -5 -26 -8 -45 -4
-19 -9 -56 -12 -83 -3 -31 -13 -56 -27 -71 -23 -24 -131 -93 -348 -222 -60
-35 -183 -110 -272 -165 -136 -83 -164 -97 -167 -82 -2 10 -7 23 -13 30 -5 6
-8 20 -7 30 2 10 -2 28 -9 40 -9 16 -9 24 -1 29 8 5 8 8 0 14 -7 4 -14 20 -16
36 -2 16 -4 29 -5 29 -4 0 -10 96 -9 143 0 38 -3 52 -11 47 -9 -6 -9 -2 0 14
6 12 8 30 5 40 -5 15 24 35 162 114 93 52 274 151 403 220 129 68 255 136 280
151 54 31 52 31 67 8z m-6123 -21 c14 -5 16 -10 8 -15 -7 -4 -9 -12 -6 -18 6
-10 8 -21 13 -66 0 -7 5 -11 9 -8 4 2 14 1 22 -5 13 -7 13 -9 0 -9 -8 -1 -3
-7 13 -16 15 -8 27 -21 27 -29 0 -13 5 -13 33 -2 49 20 84 6 162 -68 38 -36
95 -125 80 -125 -3 0 -1 -9 5 -20 6 -11 13 -57 15 -102 5 -71 0 -102 -29 -218
-80 -314 -125 -789 -97 -1017 16 -130 10 -123 100 -123 115 0 150 -8 157 -36
3 -12 11 -25 18 -27 7 -3 18 -23 25 -45 8 -23 19 -40 25 -39 6 1 17 -12 26
-29 9 -18 23 -30 32 -28 10 1 19 -8 23 -23 6 -24 7 -24 19 -8 15 20 32 5 22
-20 -3 -8 -2 -14 2 -13 4 1 18 -2 31 -6 20 -7 29 -4 47 19 27 34 40 18 24 -31
l-12 -36 -157 2 c-86 1 -190 1 -233 1 l-76 -1 19 -82 c10 -46 30 -117 44 -158
70 -203 265 -594 344 -689 20 -25 39 -49 43 -55 5 -7 26 -1 63 17 30 15 57 27
58 27 2 0 23 -30 47 -67 24 -36 66 -89 92 -117 26 -28 48 -54 48 -58 0 -5 6
-8 13 -8 6 -1 30 -16 52 -36 l40 -34 -26 -23 c-14 -12 -35 -27 -45 -33 -17
-10 -17 -13 -3 -35 64 -96 293 -290 480 -406 157 -98 442 -228 654 -298 541
-179 1178 -179 1746 1 124 40 156 39 203 -1 16 -13 32 -23 36 -20 4 2 13 -7
20 -20 7 -14 17 -25 22 -25 5 0 7 -4 4 -9 -3 -5 2 -8 11 -7 10 1 17 -8 18 -23
1 -13 9 -30 19 -36 15 -11 15 -13 1 -19 -9 -3 -13 -10 -10 -16 11 -17 14 -50
5 -50 -5 0 -7 -14 -5 -31 4 -26 -2 -39 -35 -72 -22 -21 -40 -43 -40 -48 0 -4
-9 -10 -19 -14 -11 -3 -24 -20 -30 -36 -6 -17 -20 -33 -32 -36 -15 -4 -17 -8
-8 -14 9 -5 5 -11 -14 -20 -15 -7 -26 -17 -25 -23 3 -24 -15 -66 -29 -66 -8 0
-12 -4 -9 -9 9 -15 -5 -42 -18 -34 -6 4 -5 -1 3 -11 8 -9 20 -15 28 -12 8 3
11 1 8 -4 -3 -6 5 -10 18 -10 13 0 27 -3 31 -7 12 -12 40 -12 81 -1 41 12 66
11 75 -1 9 -13 40 -21 40 -10 0 6 5 7 10 4 6 -4 22 0 35 9 13 9 32 16 40 16
30 0 10 -22 -45 -51 -30 -16 -50 -29 -45 -29 33 -1 -337 -215 -484 -281 -463
-206 -914 -303 -1406 -302 -470 0 -905 91 -1350 283 -163 69 -475 242 -475
262 0 10 24 10 34 1 4 -4 19 -9 34 -10 54 -4 78 -10 112 -28 26 -14 32 -14 25
-4 -5 8 -3 7 7 -3 18 -20 33 -24 22 -7 -4 8 0 8 15 0 11 -7 21 -9 21 -5 0 4 9
-1 19 -10 11 -10 21 -13 25 -7 4 5 2 12 -4 16 -6 4 -8 10 -6 14 3 4 -7 8 -22
9 -14 1 -31 7 -37 14 -7 8 -6 9 5 4 8 -4 4 2 -10 13 -14 11 -33 27 -42 35 -9
8 -27 20 -40 27 -13 6 -25 15 -28 18 -25 31 -143 87 -159 76 -4 -2 -15 5 -24
16 -10 11 -29 19 -47 19 -16 0 -30 5 -30 10 0 6 -6 10 -12 10 -7 0 -35 17 -63
38 -27 21 -77 57 -110 80 -86 60 -96 68 -99 86 -1 9 -12 25 -24 36 -12 12 -22
25 -22 30 0 9 -47 63 -119 137 -21 21 -37 30 -41 24 -8 -13 -67 5 -89 27 -8 7
-31 25 -53 38 -57 36 -99 85 -197 229 -106 156 -197 313 -263 452 -44 93 -151
397 -207 590 l-21 71 -93 7 c-50 4 -313 10 -584 13 -270 4 -495 11 -500 15 -4
5 -8 48 -8 95 0 75 5 120 31 241 l5 24 535 -5 535 -5 -8 91 c-23 274 20 846
81 1071 7 28 25 99 40 159 87 354 361 890 555 1084 39 39 85 79 101 87 16 8
34 24 40 36 17 32 57 44 94 30z m1126 -19 c0 -19 -18 -42 -32 -42 -12 0 -9 35
4 48 17 17 28 15 28 -6z m330 3 c7 -8 8 -15 2 -15 -5 0 -15 7 -22 15 -7 8 -8
15 -2 15 5 0 15 -7 22 -15z m680 -11 c0 -8 -7 -14 -15 -14 -17 0 -18 2 -9 24
7 18 24 12 24 -10z m-614 -12 c16 -16 40 -35 54 -42 24 -13 24 -13 4 -22 -31
-14 -74 6 -67 31 4 17 1 21 -21 21 -28 0 -29 1 -20 24 8 22 16 20 50 -12z
m-446 8 c0 -5 -4 -10 -10 -10 -5 0 -10 5 -10 10 0 6 5 10 10 10 6 0 10 -4 10
-10z m-62 -41 c2 -5 15 -7 30 -5 15 2 21 1 15 -1 -7 -2 -13 -9 -13 -14 0 -16
-39 -10 -49 9 -10 16 -12 16 -26 -2 -11 -15 -17 -16 -28 -7 -11 9 -17 8 -27
-4 -7 -8 -20 -15 -28 -15 -11 0 -4 10 18 30 29 24 41 28 70 23 19 -3 36 -10
38 -14z m1312 11 c0 -5 -2 -10 -4 -10 -3 0 -8 5 -11 10 -3 6 -1 10 4 10 6 0
11 -4 11 -10z m-2975 -10 c3 -5 1 -10 -4 -10 -6 0 -11 5 -11 10 0 6 2 10 4 10
3 0 8 -4 11 -10z m2870 0 c-3 -5 -11 -10 -16 -10 -6 0 -7 5 -4 10 3 6 11 10
16 10 6 0 7 -4 4 -10z m-2760 -30 c3 -5 1 -10 -4 -10 -6 0 -11 5 -11 10 0 6 2
10 4 10 3 0 8 -4 11 -10z m2805 0 c13 -8 13 -10 -2 -10 -9 0 -20 5 -23 10 -8
13 5 13 25 0z m-4186 -35 c-4 -15 -2 -25 5 -25 15 0 14 -22 -3 -45 -13 -18
-15 -18 -30 -2 -11 10 -13 17 -6 17 8 0 10 11 6 34 -5 23 -3 36 6 39 25 10 28
7 22 -18z m4126 21 c0 -3 -4 -8 -10 -11 -5 -3 -10 -1 -10 4 0 6 5 11 10 11 6
0 10 -2 10 -4z m110 -32 c0 -16 -2 -16 -24 -8 -13 5 -14 9 -5 20 13 16 29 9
29 -12z m-687 -17 c10 9 57 -26 57 -41 0 -8 -6 -17 -12 -19 -7 -3 -3 -6 9 -6
16 -1 21 -6 16 -16 -4 -13 3 -15 38 -13 38 3 44 0 47 -18 3 -22 -21 -54 -39
-54 -6 0 -8 9 -4 19 6 21 -10 38 -20 21 -10 -16 -30 -12 -57 13 -33 31 -41 54
-21 65 20 12 7 35 -16 27 -12 -4 -21 3 -29 20 -17 37 -14 43 7 18 10 -12 21
-19 24 -16z m-3343 3 c0 -5 -2 -10 -4 -10 -3 0 -8 5 -11 10 -3 6 -1 10 4 10 6
0 11 -4 11 -10z m3439 -4 c8 -10 9 -16 1 -21 -15 -9 -2 -25 21 -25 11 0 18 4
15 9 -3 4 4 17 15 27 20 18 20 18 14 -9 -5 -19 -3 -27 6 -27 23 0 -4 -18 -32
-21 -28 -4 -64 24 -54 41 4 6 1 17 -5 25 -7 9 -8 15 -2 15 5 0 15 -6 21 -14z
m431 5 c0 -5 3 -16 6 -25 4 -11 0 -16 -12 -16 -9 0 -14 3 -11 6 3 4 2 15 -4
25 -7 15 -6 19 6 19 8 0 15 -4 15 -9z m-210 -21 c0 -5 -4 -10 -10 -10 -5 0
-10 5 -10 10 0 6 5 10 10 10 6 0 10 -4 10 -10z m466 -33 c-4 -17 3 -32 24 -55
16 -18 25 -32 19 -32 -13 0 -52 23 -61 35 -10 13 -10 59 -1 68 14 15 25 6 19
-16z m-4416 -23 c0 -13 -4 -24 -9 -24 -11 0 -22 40 -15 52 9 15 24 -2 24 -28z
m4584 -4 c25 -1 61 -26 48 -34 -6 -3 -12 1 -16 9 -3 9 -18 15 -37 15 -18 0
-41 7 -51 17 -28 25 -21 37 8 14 15 -12 36 -21 48 -21z m-4638 -7 c-4 -4 -11
-1 -16 7 -16 25 -11 35 7 17 9 -9 13 -20 9 -24z m5744 33 c0 -2 -8 -10 -17
-17 -16 -13 -17 -12 -4 4 13 16 21 21 21 13z m-1510 -27 c0 -6 -4 -7 -10 -4
-5 3 -10 11 -10 16 0 6 5 7 10 4 6 -3 10 -11 10 -16z m100 7 c0 -3 -4 -8 -10
-11 -5 -3 -10 -1 -10 4 0 6 5 11 10 11 6 0 10 -2 10 -4z m-4250 -56 c0 -5 -9
-10 -20 -10 -11 0 -20 5 -20 10 0 6 9 10 20 10 11 0 20 -4 20 -10z m3900 -4
c0 -3 -4 -8 -10 -11 -5 -3 -10 -1 -10 4 0 6 5 11 10 11 6 0 10 -2 10 -4z m219
-53 c-5 -21 -9 -41 -9 -45 0 -5 -5 -8 -11 -8 -6 0 -8 9 -4 20 8 24 -3 26 -20
3 -11 -15 -13 -15 -20 6 -9 28 19 61 50 61 21 0 22 -3 14 -37z m-3589 -67 c0
-6 -14 -12 -30 -13 -33 -2 -40 11 -13 25 20 11 43 5 43 -12z m4290 -85 c14
-11 20 -20 13 -21 -15 0 -83 66 -83 81 0 6 10 -1 23 -15 12 -14 33 -34 47 -45z
m-440 49 c0 -5 -4 -10 -10 -10 -5 0 -10 5 -10 10 0 6 5 10 10 10 6 0 10 -4 10
-10z m-3720 -10 c0 -5 -4 -10 -10 -10 -5 0 -10 5 -10 10 0 6 5 10 10 10 6 0
10 -4 10 -10z m-910 -22 c0 -13 -32 -6 -37 9 -3 7 3 9 16 6 12 -3 21 -10 21
-15z m20 -56 c-1 -18 -18 -32 -33 -26 -17 6 -22 16 -12 25 7 8 45 8 45 1z
m5683 -7 c-3 -9 -8 -14 -10 -11 -3 3 -2 9 2 15 9 16 15 13 8 -4z m-22 -62
c-12 -20 -14 -14 -5 12 4 9 9 14 11 11 3 -2 0 -13 -6 -23z m-5659 -15 c-6 -6
-15 -8 -19 -4 -4 4 -1 11 7 16 19 12 27 3 12 -12z m318 8 c0 -3 -4 -8 -10 -11
-5 -3 -10 -1 -10 4 0 6 5 11 10 11 6 0 10 -2 10 -4z m-253 -29 c-5 -15 -29
-16 -34 -2 -2 6 6 11 18 12 12 1 19 -3 16 -10z m235 -16 c4 -1 6 -9 5 -19 -1
-16 -5 -17 -29 -8 -15 6 -28 15 -28 22 0 9 9 10 52 5z m-402 -15 c0 -8 -4 -18
-10 -21 -5 -3 -10 -4 -10 -1 0 2 -3 11 -6 20 -4 11 -1 16 10 16 9 0 16 -6 16
-14z m3364 -10 c-3 -9 -12 -16 -20 -16 -18 0 -18 5 2 25 19 19 27 15 18 -9z
m2361 -64 c0 -28 2 -52 6 -52 3 0 5 -16 5 -35 0 -19 -4 -35 -10 -35 -6 0 -5
-5 2 -12 14 -14 17 -62 3 -54 -5 4 -5 -12 0 -35 5 -23 7 -50 3 -61 -3 -10 0
-26 7 -34 6 -8 9 -18 5 -22 -4 -4 -157 -11 -339 -15 -183 -5 -337 -13 -343
-18 -20 -16 -61 -111 -260 -594 -153 -372 -207 -494 -242 -542 -43 -59 -62
-70 -62 -37 0 8 5 12 10 9 6 -3 10 -1 10 5 0 6 12 22 26 35 20 19 27 35 28 70
1 25 -3 45 -9 45 -5 0 -4 4 3 9 10 6 8 10 -8 14 -18 5 -22 11 -18 31 4 18 1
26 -8 26 -8 0 -14 11 -14 25 0 18 -8 29 -26 37 -15 7 -27 23 -31 40 -3 15 -9
28 -13 28 -4 0 -26 18 -48 40 l-41 41 16 37 c8 20 24 57 35 82 12 25 43 108
70 185 79 224 231 619 243 627 30 21 942 219 985 214 11 -1 15 -15 15 -54z
m-5415 32 c0 -8 -5 -12 -10 -9 -6 4 -8 11 -5 16 9 14 15 11 15 -7z m85 -42 c1
-27 -19 -24 -21 4 -1 10 -3 24 -4 29 -1 6 -2 15 -1 20 3 17 26 -29 26 -53z
m2692 26 c-3 -8 -6 -5 -6 6 -1 11 2 17 5 13 3 -3 4 -12 1 -19z m-23 -16 c2 -4
-7 -12 -20 -19 -26 -12 -32 -5 -12 15 14 14 25 15 32 4z m-2869 -162 c0 -7 -6
-15 -12 -17 -7 -3 -13 0 -13 7 0 6 5 8 10 5 6 -3 10 -2 10 4 0 5 -5 12 -10 14
-6 3 -5 4 2 3 7 -2 13 -9 13 -16z m935 -35 c0 -8 -4 -15 -10 -15 -5 0 -10 7
-10 15 0 8 5 15 10 15 6 0 10 -7 10 -15z m-923 -1 c-3 -3 -12 -4 -19 -1 -8 3
-5 6 6 6 11 1 17 -2 13 -5z m1068 -213 c-3 -6 -11 -8 -17 -5 -6 4 -5 9 3 15
16 10 23 4 14 -10z m-415 -31 c0 -5 -4 -10 -10 -10 -5 0 -10 5 -10 10 0 6 5
10 10 10 6 0 10 -4 10 -10z m6880 -35 c0 -8 -4 -15 -10 -15 -5 0 -7 7 -4 15 4
8 8 15 10 15 2 0 4 -7 4 -15z m-7793 -12 c-9 -9 -20 -13 -24 -9 -4 4 -1 11 7
16 25 16 35 11 17 -7z m73 -24 c0 -5 -4 -9 -10 -9 -5 0 -10 7 -10 16 0 8 5 12
10 9 6 -3 10 -10 10 -16z m7712 -51 c-7 -7 -12 -8 -12 -2 0 14 12 26 19 19 2
-3 -1 -11 -7 -17z m-4199 -37 c-9 -12 -22 -21 -27 -21 -5 0 1 11 14 25 28 30
39 26 13 -4z m4223 -16 c6 -19 9 -35 6 -35 -10 0 -31 36 -32 53 0 29 14 19 26
-18z m-7656 10 c0 -8 -4 -15 -10 -15 -5 0 -10 7 -10 15 0 8 5 15 10 15 6 0 10
-7 10 -15z m30 -49 c0 -2 3 -11 6 -19 3 -8 -2 -17 -12 -21 -12 -5 -15 -2 -10
10 4 12 2 15 -9 10 -15 -5 -21 5 -8 17 7 8 33 10 33 3z m7680 -61 c0 -7 8 -18
17 -24 10 -5 14 -13 10 -18 -5 -4 -17 3 -27 17 -22 28 -25 40 -10 40 6 0 10
-7 10 -15z m55 5 c3 -5 1 -10 -4 -10 -6 0 -11 5 -11 10 0 6 2 10 4 10 3 0 8
-4 11 -10z m-8130 -50 c-3 -5 -11 -10 -16 -10 -6 0 -7 5 -4 10 3 6 11 10 16
10 6 0 7 -4 4 -10z m502 -6 c-3 -3 -12 -4 -19 -1 -8 3 -5 6 6 6 11 1 17 -2 13
-5z m5823 -24 c0 -5 -2 -10 -4 -10 -3 0 -8 5 -11 10 -3 6 -1 10 4 10 6 0 11
-4 11 -10z m-6140 -10 c0 -5 -4 -10 -10 -10 -5 0 -10 5 -10 10 0 6 5 10 10 10
6 0 10 -4 10 -10z m157 -14 c-3 -8 1 -20 9 -26 8 -7 14 -9 14 -4 0 4 11 -3 25
-16 14 -13 25 -29 25 -36 0 -6 7 -14 15 -18 8 -3 14 -10 13 -15 -2 -5 6 -16
17 -24 25 -19 11 -36 -15 -19 -11 7 -20 8 -20 3 0 -6 5 -13 10 -16 12 -8 13
-25 1 -25 -9 0 -24 38 -22 53 4 23 -33 75 -64 88 -31 15 -35 15 -50 0 -14 -15
-18 -15 -46 1 -20 12 -36 15 -52 9 -25 -9 -50 -4 -42 9 3 5 12 7 19 4 7 -3 16
2 19 10 4 10 19 16 38 16 23 0 30 -4 26 -15 -4 -8 -2 -17 3 -20 6 -4 10 -1 10
4 0 6 9 20 20 31 23 23 55 27 47 6z m1003 -28 c0 -4 -7 -8 -15 -8 -10 0 -15
10 -15 28 1 26 1 26 15 8 8 -11 15 -23 15 -28z m-820 14 c0 -5 -11 -19 -25
-32 -29 -27 -34 -15 -7 18 17 22 32 28 32 14z m20 -12 c0 -11 -4 -20 -9 -20
-5 0 -7 9 -4 20 3 11 7 20 9 20 2 0 4 -9 4 -20z m90 10 c-20 -13 -33 -13 -25
0 3 6 14 10 23 10 15 0 15 -2 2 -10z m54 -6 c25 -10 19 -22 -9 -16 -14 2 -22
8 -19 13 6 11 8 11 28 3z m-94 -33 c0 -12 -20 -25 -27 -18 -7 7 6 27 18 27 5
0 9 -4 9 -9z m200 -71 c0 -22 5 -40 10 -40 6 0 10 -5 10 -11 0 -22 -29 12 -35
41 -3 16 -14 30 -26 33 -10 3 -19 12 -19 21 0 9 -4 16 -10 16 -5 0 -10 4 -10
9 0 5 18 0 40 -10 37 -18 40 -23 40 -59z m-666 56 c-6 -15 -44 -29 -44 -17 0
11 23 31 37 31 7 0 10 -6 7 -14z m7929 -27 c-4 -13 -9 -17 -15 -11 -11 11 -3
32 12 32 4 0 6 -9 3 -21z m-43 -34 c-12 -15 -40 -21 -40 -9 0 3 10 14 23 24
24 20 37 9 17 -15z m-7670 -1 c0 -8 -4 -12 -10 -9 -5 3 -10 10 -10 16 0 5 5 9
10 9 6 0 10 -7 10 -16z m8243 -28 c6 -14 0 -26 -14 -26 -3 0 -9 9 -12 20 -6
23 18 28 26 6z m-8177 -53 c-10 -10 -19 5 -10 18 6 11 8 11 12 0 2 -7 1 -15
-2 -18z m819 -3 c-10 -11 -13 -20 -7 -20 7 0 12 5 12 10 0 14 13 12 36 -5 16
-13 17 -16 4 -25 -10 -7 -12 -12 -4 -17 6 -5 14 -22 17 -40 5 -26 2 -35 -16
-48 -25 -18 -37 -19 -37 -4 0 5 5 7 11 3 7 -4 10 -1 7 7 -3 8 -14 13 -25 11
-15 -2 -26 6 -36 27 -15 29 -14 30 14 36 16 4 29 11 29 16 0 5 -3 8 -7 7 -5 0
-16 2 -26 7 -17 7 -17 9 4 31 27 29 50 32 24 4z m6642 -2 c-3 -8 -6 -5 -6 6
-1 11 2 17 5 13 3 -3 4 -12 1 -19z m43 -8 c0 -5 -4 -10 -10 -10 -5 0 -10 5
-10 10 0 6 5 10 10 10 6 0 10 -4 10 -10z m-7740 -10 c0 -5 -2 -10 -4 -10 -3 0
-8 5 -11 10 -3 6 -1 10 4 10 6 0 11 -4 11 -10z m304 -15 c4 -14 15 -34 25 -44
16 -16 35 -51 27 -51 -2 0 -13 9 -26 20 -13 11 -29 20 -35 20 -7 0 -18 7 -25
15 -11 13 -11 20 0 40 17 32 26 32 34 0z m436 -36 c0 -6 -4 -7 -10 -4 -5 3
-10 11 -10 16 0 6 5 7 10 4 6 -3 10 -11 10 -16z m100 1 c0 -5 -4 -10 -10 -10
-5 0 -10 5 -10 10 0 6 5 10 10 10 6 0 10 -4 10 -10z m2606 -12 c4 -6 3 -8 -4
-4 -6 3 -15 -2 -21 -11 -9 -15 -10 -15 -11 -2 0 28 23 39 36 17z m5189 2 c3
-5 1 -10 -4 -10 -6 0 -11 5 -11 10 0 6 2 10 4 10 3 0 8 -4 11 -10z m-1785 -31
c0 -5 -7 -6 -15 -3 -8 4 -15 13 -15 21 0 13 3 13 15 3 8 -7 15 -16 15 -21z
m-5870 6 c7 -8 18 -15 25 -15 14 0 27 -25 18 -34 -12 -11 -22 -6 -28 15 -6 16
-12 19 -33 15 -18 -5 -22 -4 -13 3 7 5 10 14 7 20 -11 17 10 13 24 -4z m-60
-15 c0 -5 -4 -10 -10 -10 -5 0 -10 5 -10 10 0 6 5 10 10 10 6 0 10 -4 10 -10z
m5840 -25 c0 -14 -4 -25 -10 -25 -5 0 -10 11 -10 25 0 14 5 25 10 25 6 0 10
-11 10 -25z m-5910 -10 c0 -8 -4 -15 -10 -15 -5 0 -10 7 -10 15 0 8 5 15 10
15 6 0 10 -7 10 -15z m-427 -25 c9 0 19 5 22 10 7 12 35 14 35 3 0 -11 -50
-33 -72 -33 -9 0 -22 9 -28 19 -15 29 -12 36 8 18 10 -10 26 -17 35 -17z m707
20 c0 -5 -4 -10 -10 -10 -5 0 -10 5 -10 10 0 6 5 10 10 10 6 0 10 -4 10 -10z
m5230 0 c0 -5 -5 -10 -11 -10 -5 0 -7 5 -4 10 3 6 8 10 11 10 2 0 4 -4 4 -10z
m-5430 -10 c0 -5 -4 -10 -10 -10 -5 0 -10 5 -10 10 0 6 5 10 10 10 6 0 10 -4
10 -10z m160 -21 c0 -5 -4 -9 -10 -9 -5 0 -10 7 -10 16 0 8 5 12 10 9 6 -3 10
-10 10 -16z m-820 1 c0 -5 -4 -10 -10 -10 -5 0 -10 5 -10 10 0 6 5 10 10 10 6
0 10 -4 10 -10z m290 -30 c10 0 11 -3 4 -10 -7 -7 -19 -8 -37 -1 -33 13 -36
26 -4 17 12 -3 29 -6 37 -6z m616 -17 c-7 -7 -26 7 -26 19 0 6 6 6 15 -2 9 -7
13 -15 11 -17z m5214 13 c0 -3 -4 -8 -10 -11 -5 -3 -10 -1 -10 4 0 6 5 11 10
11 6 0 10 -2 10 -4z m-5158 -28 c-6 -6 -15 -8 -19 -4 -4 4 -1 11 7 16 19 12
27 3 12 -12z m-581 -24 c6 -8 18 -14 25 -14 8 0 14 -9 14 -19 0 -31 19 -35 46
-10 13 12 24 18 24 13 0 -18 -16 -33 -40 -39 -20 -5 -32 1 -55 25 -16 16 -37
30 -47 30 -10 0 -18 2 -18 4 0 2 -3 11 -6 19 -7 19 40 11 57 -9z m6087 -14 c7
-11 10 -20 6 -20 -7 0 -34 27 -34 34 0 13 16 5 28 -14z m-5793 0 c-3 -5 -13
-10 -21 -10 -8 0 -14 5 -14 10 0 6 9 10 21 10 11 0 17 -4 14 -10z m-100 -20
c10 -11 19 -34 21 -52 2 -18 6 -50 8 -70 4 -28 1 -38 -9 -38 -7 0 -20 -3 -28
-6 -24 -9 -31 28 -9 46 18 15 38 90 24 90 -11 1 -44 50 -34 50 5 0 17 -9 27
-20z m2381 -35 c0 -14 -7 -25 -13 -25 -10 0 -10 6 -1 25 14 31 16 31 14 0z
m3494 16 c0 -5 -9 -11 -20 -14 -22 -6 -28 8 -7 16 19 8 27 8 27 -2z m-5900
-37 c0 -8 -32 -33 -42 -34 -13 0 -9 28 5 33 18 8 37 8 37 1z m90 -44 c0 -5 -5
-10 -11 -10 -5 0 -7 5 -4 10 3 6 8 10 11 10 2 0 4 -4 4 -10z m5615 -19 c3 -5
1 -12 -5 -16 -5 -3 -10 1 -10 9 0 18 6 21 15 7z m-5680 -81 c3 -5 -1 -10 -9
-10 -9 0 -16 5 -16 10 0 6 4 10 9 10 6 0 13 -4 16 -10z m5729 -126 c3 -8 2
-12 -4 -9 -6 3 -10 10 -10 16 0 14 7 11 14 -7z m0 -95 c-24 -27 -29 -16 -8 16
10 16 20 23 22 16 2 -7 -4 -21 -14 -32z m-34 -44 c0 -4 -7 -19 -15 -35 -13
-25 -13 -29 0 -34 8 -3 15 -11 15 -17 0 -7 -8 -5 -20 6 -22 20 -26 55 -8 73
12 12 28 16 28 7z m1130 -91 c0 -8 -5 -12 -10 -9 -6 4 -8 11 -5 16 9 14 15 11
15 -7z m-1045 -19 c35 -29 25 -34 -13 -6 -15 10 -34 21 -42 24 -11 4 -9 6 5 6
11 0 34 -11 50 -24z m960 -35 c3 -5 1 -10 -4 -10 -6 0 -11 5 -11 10 0 6 2 10
4 10 3 0 8 -4 11 -10z m-678 -42 c-2 -7 0 -24 5 -38 5 -14 10 -44 10 -68 0
-48 24 -82 58 -82 13 0 28 -12 38 -30 9 -16 25 -30 34 -30 9 0 24 -10 32 -21
8 -13 21 -19 29 -16 9 3 23 -3 33 -14 9 -10 24 -18 32 -17 11 2 16 -8 18 -39
3 -51 -8 -56 -21 -10 -7 23 -19 35 -41 42 -17 6 -38 18 -48 28 -10 9 -31 24
-47 32 -15 9 -33 24 -39 35 -6 11 -20 20 -30 20 -11 0 -29 9 -40 20 -11 11
-29 20 -40 20 -16 0 -19 6 -16 35 2 20 6 38 10 42 10 11 7 48 -6 61 -7 7 -22
12 -34 12 -13 0 -26 5 -30 11 -4 8 3 9 24 4 17 -3 39 -2 49 4 23 14 26 13 20
-1z m778 2 c3 -5 1 -10 -4 -10 -6 0 -11 5 -11 10 0 6 2 10 4 10 3 0 8 -4 11
-10z m-61 -15 c-4 -8 -12 -15 -20 -15 -8 0 -14 7 -14 15 0 8 9 15 20 15 13 0
18 -5 14 -15z m-409 -15 c3 -5 1 -10 -4 -10 -6 0 -11 5 -11 10 0 6 2 10 4 10
3 0 8 -4 11 -10z m363 -23 c2 -15 -1 -27 -6 -27 -6 0 -8 9 -5 20 3 11 0 20 -6
20 -6 0 -11 5 -11 11 0 23 25 1 28 -24z m92 23 c0 -5 -7 -10 -15 -10 -8 0 -15
5 -15 10 0 6 7 10 15 10 8 0 15 -4 15 -10z m-102 -76 c7 4 12 2 12 -3 0 -12
-6 -13 -37 -5 -13 4 -20 11 -16 20 4 12 7 12 18 -2 6 -9 17 -14 23 -10z m-298
-14 c0 -16 5 -30 10 -30 6 0 10 4 10 9 0 5 11 9 24 9 17 0 25 -7 29 -24 2 -13
0 -24 -4 -24 -5 0 -9 -7 -9 -16 0 -8 -5 -12 -10 -9 -6 3 -14 -4 -19 -17 l-9
-23 -11 28 c-13 34 -14 47 -2 28 7 -11 12 -11 31 2 20 14 21 16 4 25 -12 7
-25 7 -36 1 -32 -17 -49 12 -32 55 10 26 24 18 24 -14z m130 10 c0 -5 -2 -10
-4 -10 -3 0 -8 5 -11 10 -3 6 -1 10 4 10 6 0 11 -4 11 -10z m-25 -120 c-6 -10
-35 -14 -35 -5 0 3 6 14 12 25 11 16 14 17 21 5 4 -8 5 -20 2 -25z m42 8 c-3
-8 -6 -5 -6 6 -1 11 2 17 5 13 3 -3 4 -12 1 -19z m-22 -58 c3 -5 1 -10 -4 -10
-6 0 -11 5 -11 10 0 6 2 10 4 10 3 0 8 -4 11 -10z m-65 -20 c0 -5 -2 -10 -4
-10 -3 0 -8 5 -11 10 -3 6 -1 10 4 10 6 0 11 -4 11 -10z m-87 -17 c-7 -2 -19
-2 -25 0 -7 3 -2 5 12 5 14 0 19 -2 13 -5z m57 -14 c0 -6 7 -9 15 -5 22 8 18
-12 -5 -24 -15 -8 -21 -6 -29 9 -10 18 -6 31 11 31 4 0 8 -5 8 -11z m210 -50
c0 -22 -11 -24 -28 -7 -17 17 -15 24 8 25 14 1 20 -4 20 -18z m-63 -46 c-3 -3
-11 -2 -17 2 -8 5 -7 11 2 22 12 15 13 14 16 -1 2 -10 1 -20 -1 -23z m-6433
-29 c9 -33 3 -39 -22 -25 -14 7 -18 17 -15 31 8 28 30 25 37 -6z m260 -1 c-10
-40 -14 -41 -14 -5 0 18 5 32 10 32 6 0 8 -11 4 -27z m6086 23 c0 -2 3 -11 6
-20 4 -11 0 -16 -12 -16 -9 0 -14 3 -11 7 4 3 2 12 -4 20 -9 10 -8 13 5 13 9
0 16 -2 16 -4z m140 -16 c0 -5 -2 -10 -4 -10 -3 0 -8 5 -11 10 -3 6 -1 10 4
10 6 0 11 -4 11 -10z m-267 -30 c20 -23 42 -27 33 -5 -3 8 -1 15 4 15 6 0 10
-2 10 -4 0 -2 2 -11 6 -19 5 -15 -25 -39 -66 -52 l-25 -8 25 21 c14 12 19 21
13 22 -7 0 -13 7 -13 15 0 8 -4 15 -10 15 -5 0 -10 5 -10 10 0 16 14 12 33
-10z m-5928 -68 c-6 -7 -35 18 -35 31 0 5 9 2 20 -8 11 -10 18 -20 15 -23z
m-301 -7 c3 -8 1 -15 -3 -15 -5 0 -11 7 -15 15 -3 8 -1 15 3 15 5 0 11 -7 15
-15z m6233 -29 c13 -4 36 -20 52 -37 24 -24 26 -29 11 -29 -10 0 -25 11 -34
25 -9 14 -27 27 -40 31 -14 3 -27 13 -31 21 -4 12 -2 13 7 6 7 -6 23 -14 35
-17z m-6232 -46 c3 -5 1 -10 -4 -10 -6 0 -11 5 -11 10 0 6 2 10 4 10 3 0 8 -4
11 -10z m7322 -70 c29 0 30 -11 2 -28 -15 -10 -24 -10 -34 -2 -16 13 -27 65
-17 87 5 14 9 9 16 -19 8 -30 14 -38 33 -38z m53 -6 c0 -8 -5 -12 -10 -9 -6 4
-8 11 -5 16 9 14 15 11 15 -7z m-7500 -39 c0 -8 -4 -15 -10 -15 -5 0 -10 7
-10 15 0 8 5 15 10 15 6 0 10 -7 10 -15z m7367 -31 c8 -22 -15 -43 -27 -24 -5
8 -10 21 -10 28 0 17 30 15 37 -4z m-7290 -10 c4 -13 -44 -37 -58 -29 -13 9
-11 32 4 39 19 8 50 2 54 -10z m83 -34 c6 -11 9 -20 6 -20 -8 0 -56 47 -56 54
0 13 40 -14 50 -34z m7298 -17 c-2 -10 -11 -19 -21 -21 -16 -3 -17 -1 -5 17
16 25 31 27 26 4z m-7018 -228 c-6 -8 -9 -18 -7 -22 3 -5 -10 -7 -29 -5 -19 2
-34 7 -34 9 0 12 37 32 59 33 19 0 21 -3 11 -15z m7222 -97 c-7 -7 -12 -8 -12
-2 0 14 12 26 19 19 2 -3 -1 -11 -7 -17z m-7487 -44 c-9 -14 -15 -30 -13 -36
2 -6 10 3 17 20 15 35 37 44 28 12 -3 -11 -1 -20 4 -20 5 0 9 -8 9 -19 0 -19
16 -20 71 -6 15 4 30 2 33 -3 3 -5 -10 -13 -29 -16 -22 -4 -35 -13 -35 -22 0
-10 -8 -14 -22 -13 -13 2 -29 0 -35 -4 -8 -5 -13 -3 -13 4 0 8 -4 8 -15 -1 -9
-8 -15 -9 -15 -2 0 6 5 14 10 17 16 10 12 23 -7 21 -27 -2 -27 37 -1 78 13 19
25 31 26 25 2 -5 -4 -21 -13 -35z m95 6 c0 -5 -7 -10 -16 -10 -8 0 -12 5 -9
10 3 6 10 10 16 10 5 0 9 -4 9 -10z m130 -20 c0 -5 -2 -10 -4 -10 -3 0 -8 5
-11 10 -3 6 -1 10 4 10 6 0 11 -4 11 -10z m-30 -44 c0 -2 -7 -6 -15 -10 -8 -3
-15 -1 -15 4 0 6 7 10 15 10 8 0 15 -2 15 -4z m-175 -86 c0 -7 -6 -15 -12 -17
-8 -3 -13 4 -13 17 0 13 5 20 13 18 6 -3 12 -11 12 -18z m7745 -70 c0 -5 -4
-10 -10 -10 -5 0 -10 5 -10 10 0 6 5 10 10 10 6 0 10 -4 10 -10z m-7737 -46
c-9 -23 -33 -16 -33 9 0 13 3 27 7 31 11 10 33 -23 26 -40z m6786 0 c-20 -38
-31 -28 -11 10 9 19 19 30 21 24 2 -5 -2 -21 -10 -34z m-6745 -60 c10 -25 -1
-29 -14 -5 -6 12 -7 21 -1 21 5 0 12 -7 15 -16z m31 -54 c3 -5 14 -10 23 -10
22 0 54 -53 46 -75 -4 -10 -1 -21 7 -27 12 -8 12 -9 -1 -6 -8 3 -17 19 -21 36
-9 44 -27 64 -48 53 -19 -11 -57 12 -46 28 8 14 32 14 40 1z m-1205 -100 c0
-5 -2 -10 -4 -10 -3 0 -8 5 -11 10 -3 6 -1 10 4 10 6 0 11 -4 11 -10z m7760
-10 c0 -5 -4 -10 -10 -10 -5 0 -10 5 -10 10 0 6 5 10 10 10 6 0 10 -4 10 -10z
m-40 -20 c0 -5 -5 -10 -11 -10 -5 0 -7 5 -4 10 3 6 8 10 11 10 2 0 4 -4 4 -10z
m246 -17 c-7 -7 -26 7 -26 19 0 6 6 6 15 -2 9 -7 13 -15 11 -17z m24 -39 c0
-8 -4 -12 -10 -9 -5 3 -10 13 -10 21 0 8 5 12 10 9 6 -3 10 -13 10 -21z
m-6698 -9 c0 -5 -5 -11 -11 -13 -6 -2 -11 4 -11 13 0 9 5 15 11 13 6 -2 11 -8
11 -13z m6628 -9 c0 -2 -8 -10 -17 -17 -16 -13 -17 -12 -4 4 13 16 21 21 21
13z m-6662 -90 c-15 -56 -6 -65 57 -66 31 -1 36 -3 23 -10 -23 -14 -69 -8 -97
12 -24 17 -24 18 -8 50 8 18 18 42 22 52 12 40 15 6 3 -38z m322 16 c0 -10 5
-23 12 -30 9 -9 9 -15 1 -23 -9 -9 -16 -8 -28 5 -22 22 -31 20 -63 -9 -26 -24
-59 -35 -47 -15 3 6 12 10 19 10 8 0 22 12 32 28 32 50 74 69 74 34z m520 -27
c0 -8 -2 -15 -4 -15 -2 0 -6 7 -10 15 -3 8 -1 15 4 15 6 0 10 -7 10 -15z
m6024 -47 c14 -18 23 -34 21 -36 -4 -4 -65 55 -65 63 0 15 22 1 44 -27z
m-6504 -29 c0 -5 -4 -9 -10 -9 -5 0 -10 7 -10 16 0 8 5 12 10 9 6 -3 10 -10
10 -16z m20 -54 c0 -8 10 -15 23 -17 18 -2 22 -9 22 -42 0 -21 -5 -40 -11 -43
-9 -3 -9 -11 2 -31 9 -19 10 -30 2 -39 -15 -19 -23 -16 -24 10 -7 118 -21 167
-50 167 -8 0 -14 4 -14 9 0 4 11 6 25 3 14 -2 25 -10 25 -17z m6864 0 c-4 -8
-10 -15 -15 -15 -5 0 -9 -7 -9 -15 0 -8 4 -15 8 -15 4 0 13 -13 19 -29 9 -24
8 -29 -3 -24 -8 3 -14 10 -14 16 0 6 -7 19 -17 29 -15 17 -15 20 7 43 27 29
32 31 24 10z m201 -116 c9 -28 4 -29 -22 -2 -21 21 -21 23 -3 23 10 0 22 -9
25 -21z m-151 -49 c-8 -7 -24 24 -23 45 0 15 4 13 14 -10 7 -16 11 -32 9 -35z
m-6149 0 c4 -6 10 -8 15 -5 4 3 11 -2 14 -10 4 -12 2 -13 -12 -6 -36 21 -47
31 -35 31 6 0 15 -5 18 -10z m6310 -12 c-3 -13 -10 -36 -14 -53 -5 -21 -9 -26
-15 -16 -10 15 12 91 27 91 5 0 6 -10 2 -22z m-95 -7 c0 -13 -29 -41 -42 -41
-5 0 0 11 13 25 27 28 29 29 29 16z m-6167 -27 c15 -4 27 -10 27 -15 0 -5 -7
-5 -17 -2 -11 4 -14 3 -9 -5 4 -7 1 -12 -6 -13 -11 0 -11 -2 0 -6 7 -3 22 3
32 12 18 16 46 13 35 -5 -3 -4 5 -10 17 -13 12 -4 19 -9 15 -13 -4 -4 3 -18
15 -31 18 -19 19 -23 5 -17 -13 5 -16 2 -10 -12 4 -11 3 -15 -4 -11 -6 4 -9
-5 -7 -24 l4 -31 -31 26 c-17 14 -37 26 -46 26 -8 0 -29 10 -46 22 -18 13 -33
22 -34 20 -2 -1 -7 -2 -12 -2 -14 0 -23 32 -11 44 7 7 10 6 10 -2 0 -7 12 -12
26 -12 14 0 23 -4 20 -9 -3 -5 1 -11 9 -15 21 -8 19 10 -2 26 -10 7 -25 22
-33 33 -14 18 -13 19 1 8 9 -7 19 -10 22 -6 13 12 7 23 -12 23 -11 0 -23 5
-27 12 -5 8 0 9 17 4 13 -3 36 -9 52 -12z m-653 -71 c0 -15 -4 -22 -11 -17 -6
3 -9 15 -6 25 3 11 1 19 -4 19 -5 0 -9 5 -9 11 0 8 5 8 15 -1 8 -7 15 -23 15
-37z m494 16 c-2 -4 2 -10 8 -12 8 -4 9 -6 2 -6 -6 -1 -17 5 -23 12 -8 10 -7
14 4 14 8 0 12 -4 9 -8z m56 -3 c0 -2 -7 -7 -16 -10 -8 -3 -12 -2 -9 4 6 10
25 14 25 6z m-2115 -26 c3 -5 -1 -10 -9 -10 -9 0 -16 5 -16 10 0 6 4 10 9 10
6 0 13 -4 16 -10z m2140 -25 c42 -18 95 -56 106 -77 12 -22 12 -22 -15 -5 -18
12 -32 15 -43 9 -11 -6 -12 -11 -4 -16 6 -4 11 -11 11 -16 0 -6 -9 -2 -19 7
-16 13 -18 21 -9 36 7 14 7 17 -1 13 -6 -4 -11 -2 -11 4 0 7 -7 10 -15 6 -9
-3 -15 0 -15 10 0 9 -9 18 -20 21 -11 3 -20 9 -20 14 0 10 23 7 55 -6z m-495
-15 c8 -5 12 -11 10 -14 -3 -2 -14 2 -24 10 -22 15 -10 19 14 4z m-1970 -30
c0 -5 -5 -10 -11 -10 -5 0 -7 5 -4 10 3 6 8 10 11 10 2 0 4 -4 4 -10z m1985
-21 c6 -19 0 -38 -9 -28 -10 12 -16 49 -7 49 5 0 13 -9 16 -21z m-1115 -46 c2
-2 -2 -8 -10 -13 -13 -8 -70 13 -70 26 0 5 72 -6 80 -13z m8156 -328 c-17 -13
-23 -30 -6 -20 6 3 10 -1 10 -9 0 -21 -10 -20 -25 1 -17 23 -1 55 22 46 15 -6
15 -7 -1 -18z m-1 -64 c3 -5 1 -12 -5 -16 -5 -3 -10 1 -10 9 0 18 6 21 15 7z
m-8735 -12 c0 -6 7 -9 14 -6 10 4 13 1 9 -9 -7 -18 -11 -18 -29 0 -16 17 -18
26 -4 26 6 0 10 -5 10 -11z m3052 -117 c-7 -2 -9 -8 -6 -14 7 -11 -13 -28 -33
-28 -7 0 -13 5 -13 11 0 5 5 7 12 3 8 -5 9 0 6 14 -4 16 -2 22 9 22 9 0 13 6
10 14 -9 24 7 29 18 5 7 -16 6 -24 -3 -27z m-292 18 c0 -5 -2 -10 -4 -10 -3 0
-8 5 -11 10 -3 6 -1 10 4 10 6 0 11 -4 11 -10z m320 -80 c11 -6 17 -17 14 -25
-4 -8 -1 -15 5 -15 6 0 11 -9 11 -20 0 -25 -35 -27 -49 -3 -7 13 -5 21 7 29
16 12 15 14 -3 28 -23 17 -13 21 15 6z m-44 -87 c-11 -11 -24 9 -18 29 l5 22
9 -24 c5 -12 6 -25 4 -27z m161 1 c14 -14 14 -17 -6 -35 -22 -21 -30 -12 -8
10 10 11 10 14 0 18 -7 3 -13 9 -13 14 0 13 9 11 27 -7z m-3442 -63 c-3 -6
-11 -11 -17 -11 -6 0 -6 6 2 15 14 17 26 13 15 -4z m3285 9 c0 -5 -4 -10 -10
-10 -5 0 -10 5 -10 10 0 6 5 10 10 10 6 0 10 -4 10 -10z m235 -19 c-6 -21 -25
-29 -25 -11 0 6 5 10 10 10 6 0 9 3 9 8 -3 15 1 25 7 19 3 -3 3 -15 -1 -26z
m84 16 c-2 -1 -12 -9 -21 -16 -15 -12 -18 -11 -18 3 0 10 8 16 22 16 12 0 19
-1 17 -3z m-524 -27 c3 -5 1 -10 -4 -10 -6 0 -11 5 -11 10 0 6 2 10 4 10 3 0
8 -4 11 -10z m5441 -37 c-4 -4 -14 1 -22 11 -22 31 -17 43 8 19 12 -13 18 -26
14 -30z m-5271 -2 c3 -5 1 -12 -4 -15 -12 -8 -41 3 -41 15 0 12 37 12 45 0z
m531 -2 c7 -12 -15 -31 -28 -23 -4 3 -8 12 -8 20 0 17 26 19 36 3z m-3756 -14
c0 -8 -2 -15 -4 -15 -2 0 -6 7 -10 15 -3 8 -1 15 4 15 6 0 10 -7 10 -15z
m3250 -48 c0 -5 -7 -7 -15 -3 -8 3 -15 1 -15 -4 0 -6 6 -10 14 -10 29 0 25
-18 -4 -22 -16 -2 -27 -1 -24 4 3 4 -2 8 -10 8 -24 0 -19 35 7 53 20 14 23 14
35 -1 6 -9 12 -20 12 -25z m300 8 c-7 -9 -15 -13 -18 -10 -3 2 1 11 8 20 7 9
15 13 18 10 3 -2 -1 -11 -8 -20z m-444 -31 c-25 -18 -31 -12 -16 16 9 17 15
19 23 10 9 -9 7 -15 -7 -26z m548 -9 c-4 -8 -10 -12 -15 -9 -11 6 -2 24 11 24
5 0 7 -7 4 -15z m-792 -17 c-7 -7 -12 -8 -12 -2 0 14 12 26 19 19 2 -3 -1 -11
-7 -17z m2205 -10 c-3 -8 -6 -5 -6 6 -1 11 2 17 5 13 3 -3 4 -12 1 -19z m3583
-30 c0 -20 -18 -5 -23 19 -5 26 -4 26 9 8 8 -10 14 -22 14 -27z m-5390 12 c0
-13 -7 -20 -20 -20 -23 0 -26 10 -8 28 18 18 28 15 28 -8z m327 -5 c18 -11 33
-27 33 -35 0 -9 5 -21 12 -28 8 -8 9 -12 1 -12 -6 0 -31 23 -54 52 -45 53 -45
55 8 23z m105 -20 c-5 -27 -18 -33 -24 -13 -4 12 11 37 23 38 3 0 4 -11 1 -25z
m4808 11 c0 -8 -4 -18 -10 -21 -5 -3 -10 3 -10 14 0 12 5 21 10 21 6 0 10 -6
10 -14z m-4504 -28 c5 -8 2 -9 -10 -5 -10 4 -22 7 -27 7 -5 0 -9 7 -9 15 0 12
4 14 19 5 11 -5 23 -15 27 -22z m-4071 -18 c-3 -5 -16 -10 -28 -9 -21 0 -21 1
-2 9 28 12 37 12 30 0z m3253 -8 c-10 -2 -18 -8 -18 -13 0 -5 -4 -9 -10 -9 -5
0 -10 6 -10 14 0 16 28 26 45 17 6 -3 2 -7 -7 -9z m5372 -42 c0 -19 -11 -26
-23 -14 -8 8 3 34 14 34 5 0 9 -9 9 -20z m337 -116 c-3 -3 -12 -4 -19 -1 -8 3
-5 6 6 6 11 1 17 -2 13 -5z m36 -30 c-4 -12 -8 -13 -14 -3 -9 15 -2 32 11 24
5 -3 6 -13 3 -21z m-31 -39 c0 -5 -5 -11 -11 -13 -6 -2 -11 4 -11 13 0 9 5 15
11 13 6 -2 11 -8 11 -13z m4 -62 c-10 -10 -19 5 -10 18 6 11 8 11 12 0 2 -7 1
-15 -2 -18z m-61 -63 c3 -5 -1 -10 -10 -10 -9 0 -13 5 -10 10 3 6 8 10 10 10
2 0 7 -4 10 -10z m-29 -42 c-3 -13 -6 -26 -6 -30 0 -3 -8 -4 -19 -1 -14 3 -24
-7 -42 -44 -26 -54 -29 -86 -13 -123 10 -22 8 -29 -15 -57 -23 -28 -28 -30
-45 -17 -19 13 -19 14 -1 34 18 20 15 24 -19 20 -11 -1 -15 3 -12 9 4 6 13 11
21 11 13 0 42 66 37 84 -2 5 1 12 5 15 14 10 43 59 43 72 0 19 33 48 54 48 14
1 17 -4 12 -21z m-6251 -69 c-7 -10 -35 -1 -35 11 0 5 9 6 20 3 11 -3 17 -9
15 -14z m310 -59 c-5 -29 -10 -39 -18 -31 -7 7 -7 14 2 25 9 11 9 15 -1 18
-10 4 -10 8 1 22 20 23 24 14 16 -34z m-429 -87 c-6 -6 -46 30 -46 41 0 5 11
-1 25 -14 14 -13 23 -25 21 -27z m484 -17 c0 -3 -4 -8 -10 -11 -5 -3 -10 -1
-10 4 0 6 5 11 10 11 6 0 10 -2 10 -4z m1589 -28 c11 -18 28 -43 37 -55 10
-14 12 -23 5 -23 -6 0 -11 4 -11 8 0 5 -16 25 -35 45 -34 35 -44 57 -26 57 5
0 18 -15 30 -32z m4411 19 c0 -2 -10 -12 -21 -23 -22 -19 -22 -19 -8 4 12 19
29 30 29 19z m-6375 -27 c-3 -5 -13 -10 -21 -10 -8 0 -12 5 -9 10 3 6 13 10
21 10 8 0 12 -4 9 -10z m2755 -50 c0 -5 -4 -10 -10 -10 -5 0 -10 5 -10 10 0 6
5 10 10 10 6 0 10 -4 10 -10z m3595 -29 c3 -5 1 -12 -5 -16 -5 -3 -10 1 -10 9
0 18 6 21 15 7z m-304 -84 c-8 -24 -8 -42 0 -66 13 -38 5 -52 -16 -25 -16 21
-13 71 8 133 10 29 13 31 15 13 2 -12 -1 -37 -7 -55z m349 32 c14 -24 9 -32
-14 -23 -17 7 -23 44 -6 44 5 0 14 -9 20 -21z m-6280 1 c0 -5 -4 -10 -10 -10
-5 0 -10 5 -10 10 0 6 5 10 10 10 6 0 10 -4 10 -10z m2066 -15 c25 -19 14 -19
-22 0 -16 8 -22 15 -13 15 8 0 24 -7 35 -15z m659 -5 c14 -16 15 -20 4 -20
-16 0 -39 19 -39 32 0 14 16 9 35 -12z m-495 6 c0 -2 -7 -6 -15 -10 -8 -3 -15
-1 -15 4 0 6 7 10 15 10 8 0 15 -2 15 -4z m50 -6 c-19 -13 -30 -13 -30 0 0 6
10 10 23 10 18 0 19 -2 7 -10z m-155 -20 c13 -6 15 -9 5 -9 -8 0 -22 4 -30 9
-18 12 -2 12 25 0z m630 -20 c-7 -21 4 -27 21 -10 6 6 15 6 24 -1 13 -8 11
-12 -9 -29 -28 -24 -54 -26 -71 -5 -11 13 -9 20 10 40 28 30 33 31 25 5z
m-895 -10 c0 -5 -6 -10 -14 -10 -8 0 -18 5 -21 10 -3 6 3 10 14 10 12 0 21 -4
21 -10z m4446 -46 c-5 -14 -9 -15 -19 -5 -9 9 -9 14 3 21 18 11 24 6 16 -16z
m-3436 -19 c0 -7 -8 -18 -17 -24 -16 -9 -16 -13 -5 -31 7 -12 11 -24 8 -27 -2
-3 -10 4 -17 15 -10 16 -16 18 -31 9 -13 -9 -20 -9 -29 0 -15 15 -3 33 22 33
10 0 19 6 19 14 0 14 14 24 38 25 6 1 12 -6 12 -14z m-715 -35 c3 -5 -3 -10
-15 -10 -12 0 -18 5 -15 10 3 6 10 10 15 10 5 0 12 -4 15 -10z m4192 -12 c-3
-8 -6 -5 -6 6 -1 11 2 17 5 13 3 -3 4 -12 1 -19z"/>
<path d="M4831 5184 c0 -11 3 -14 6 -6 3 7 2 16 -1 19 -3 4 -6 -2 -5 -13z"/>
</g>
</svg>
